<?xml version="1.0" standalone="no"?>
<!DOCTYPE svg PUBLIC "-//W3C//DTD SVG 20010904//EN"
 "http://www.w3.org/TR/2001/REC-SVG-20010904/DTD/svg10.dtd">
<svg version="1.0" xmlns="http://www.w3.org/2000/svg"
 width="500.000000pt" height="500.000000pt" viewBox="0 0 500.000000 500.000000"
 preserveAspectRatio="xMidYMid meet">

<g transform="translate(0.000000,500.000000) scale(0.100000,-0.100000)"
fill="#000000" stroke="none">
<path d="M3180 3949 c0 -3 23 -27 50 -52 l50 -46 -67 -54 c-279 -222 -618
-395 -1071 -546 -152 -51 -486 -145 -590 -166 -63 -13 -26 -15 84 -5 240 22
557 92 829 182 377 125 650 266 871 450 85 71 172 163 163 173 -9 8 -319 71
-319 64z"/>
<path d="M3415 3660 c-44 -39 -117 -96 -162 -128 l-82 -57 0 -331 c-1 -182 2
-345 5 -362 l6 -31 58 37 c31 20 103 66 159 102 l101 65 0 388 c0 213 -1 387
-2 387 -2 0 -39 -32 -83 -70z"/>
<path d="M3010 3385 c-25 -13 -98 -47 -162 -76 l-118 -53 0 -398 c0 -219 2
-398 5 -398 2 0 57 35 122 78 65 43 137 91 160 105 l43 27 2 370 c2 203 1 370
-2 370 -3 -1 -25 -12 -50 -25z"/>
<path d="M2545 3191 c-27 -10 -96 -31 -152 -46 l-103 -29 0 -320 1 -321 114
-78 113 -77 51 31 51 32 0 413 c0 325 -3 414 -12 413 -7 0 -35 -8 -63 -18z"/>
<path d="M2023 3055 l-153 -30 0 -132 0 -133 151 -101 c83 -55 153 -99 155
-96 2 2 3 121 2 263 l-3 259 -152 -30z"/>
<path d="M1675 3003 c-16 -1 -58 -6 -93 -9 l-63 -6 116 -74 c63 -41 120 -74
125 -74 6 0 10 35 10 85 l0 85 -32 -1 c-18 -1 -46 -4 -63 -6z"/>
<path d="M1410 2617 c0 -195 -3 -394 -6 -443 l-7 -90 342 -234 c188 -129 373
-257 412 -283 l69 -48 0 -90 c0 -58 -4 -89 -11 -89 -10 0 -164 103 -626 417
-83 57 -158 105 -165 108 -10 4 -13 -29 -11 -172 l2 -177 28 -21 c25 -19 328
-227 773 -530 80 -55 170 -116 200 -137 30 -21 58 -38 63 -38 4 0 7 200 7 444
l0 443 -212 144 c-117 79 -271 183 -343 232 -71 49 -160 109 -197 134 l-68 46
0 113 c0 74 4 114 11 114 6 0 92 -56 192 -123 100 -68 271 -184 380 -258 108
-74 206 -140 217 -148 20 -13 20 -11 20 150 l0 164 -143 98 c-373 258 -784
537 -914 620 -10 6 -13 -65 -13 -346z"/>
<path d="M3380 2760 c-118 -76 -344 -223 -502 -326 l-288 -186 0 -714 c0 -393
3 -714 6 -714 4 0 65 37 135 81 l129 81 1 267 0 266 72 46 c208 135 625 409
645 425 22 19 23 22 20 196 l-3 177 -205 -134 c-113 -73 -278 -181 -368 -239
l-163 -106 3 91 3 91 225 147 c124 80 289 187 368 238 l142 92 0 181 c0 99 -1
180 -3 180 -1 0 -99 -63 -217 -140z"/>
</g>
</svg>
