<?xml version="1.0" standalone="no"?>
<!DOCTYPE svg PUBLIC "-//W3C//DTD SVG 20010904//EN"
 "http://www.w3.org/TR/2001/REC-SVG-20010904/DTD/svg10.dtd">
<svg version="1.0" xmlns="http://www.w3.org/2000/svg"
 width="2048.000000pt" height="2048.000000pt" viewBox="0 0 2048.000000 2048.000000"
 preserveAspectRatio="xMidYMid meet">

<g transform="translate(0.000000,2048.000000) scale(0.100000,-0.100000)"
fill="#000000" stroke="none">
<path d="M12980 16216 c0 -3 99 -104 219 -225 l220 -219 -107 -89 c-326 -270
-868 -657 -1210 -862 -53 -32 -128 -77 -166 -101 -38 -23 -84 -50 -102 -61
-19 -10 -50 -28 -69 -39 -19 -11 -51 -29 -70 -40 -19 -11 -52 -30 -72 -42 -75
-42 -350 -187 -493 -259 -139 -70 -403 -195 -525 -249 -27 -12 -70 -31 -95
-42 -91 -41 -136 -60 -167 -74 -18 -8 -50 -21 -70 -30 -56 -24 -105 -45 -128
-54 -11 -4 -41 -17 -67 -29 -26 -12 -50 -21 -53 -21 -3 0 -24 -9 -48 -19 -23
-10 -103 -42 -177 -71 -74 -28 -146 -57 -160 -62 -33 -14 -54 -22 -125 -48
-33 -12 -69 -26 -80 -30 -11 -4 -36 -13 -55 -20 -19 -7 -44 -16 -55 -20 -40
-16 -131 -49 -170 -61 -22 -7 -44 -17 -50 -21 -5 -4 -18 -8 -30 -8 -12 0 -25
-4 -30 -8 -6 -5 -44 -19 -85 -32 -41 -13 -79 -27 -85 -32 -5 -4 -19 -8 -31 -8
-13 0 -26 -4 -29 -10 -3 -5 -17 -10 -30 -10 -13 0 -27 -4 -30 -10 -3 -5 -17
-10 -30 -10 -13 0 -27 -4 -30 -10 -3 -5 -15 -10 -26 -10 -10 0 -27 -4 -37 -9
-9 -5 -51 -19 -92 -31 -41 -12 -84 -26 -95 -30 -11 -4 -54 -18 -95 -30 -41
-12 -83 -26 -92 -31 -10 -5 -27 -9 -38 -9 -11 0 -28 -4 -38 -9 -9 -5 -37 -15
-62 -21 -25 -7 -56 -16 -70 -20 -14 -4 -45 -13 -70 -20 -25 -7 -56 -16 -70
-20 -25 -8 -83 -23 -155 -42 -22 -6 -49 -14 -60 -18 -11 -5 -31 -11 -45 -14
-14 -2 -41 -9 -60 -15 -19 -5 -71 -19 -115 -31 -44 -12 -96 -26 -115 -31 -48
-14 -99 -27 -135 -34 -16 -4 -39 -10 -50 -15 -11 -5 -33 -11 -50 -15 -16 -3
-47 -10 -67 -15 -21 -6 -56 -14 -78 -20 -22 -5 -57 -14 -77 -20 -21 -5 -58
-14 -83 -20 -25 -6 -62 -15 -82 -20 -74 -19 -124 -31 -163 -40 -22 -5 -62 -14
-90 -20 -27 -7 -66 -16 -85 -20 -19 -4 -79 -20 -134 -34 -54 -14 -107 -26
-117 -26 -11 0 -19 -5 -19 -11 0 -19 365 -3 710 31 297 29 687 85 970 140 25
5 70 14 100 19 30 5 78 14 105 20 28 6 75 16 105 22 30 6 75 15 100 20 25 6
65 14 90 19 43 8 96 20 185 42 22 5 58 13 80 18 22 5 58 13 80 19 63 16 117
28 155 36 19 4 44 10 55 15 11 4 52 15 90 25 119 28 139 33 180 45 22 6 56 15
75 20 19 5 52 13 73 19 58 17 104 30 145 42 20 6 49 13 65 16 15 3 30 9 33 14
3 5 14 9 26 9 21 0 140 36 170 51 10 5 27 9 38 9 11 0 28 4 38 9 9 5 64 23
122 41 58 18 114 36 125 41 11 4 38 13 60 20 22 6 48 15 57 20 10 5 25 9 33 9
8 0 23 4 33 10 9 5 60 23 112 40 52 17 103 35 112 40 10 6 25 10 33 10 8 0 23
4 33 9 23 12 60 26 102 41 19 7 45 16 58 21 12 5 32 13 45 18 12 5 38 14 57
21 42 15 79 29 102 41 10 5 22 9 28 9 6 0 29 9 53 19 23 10 62 26 87 36 25 9
61 23 80 32 35 15 59 25 103 42 12 5 45 19 72 31 28 12 59 26 70 30 44 17 140
59 275 122 107 49 640 315 705 351 33 19 87 49 120 67 33 18 72 41 87 52 14
10 28 18 31 18 25 0 521 323 695 452 364 271 727 597 949 853 58 66 113 130
124 141 10 12 19 24 19 27 0 6 -93 29 -205 52 -38 8 -97 21 -155 35 -25 5 -65
14 -90 20 -25 5 -65 14 -90 20 -25 5 -67 15 -95 20 -79 17 -126 27 -185 40
-30 7 -73 16 -95 21 -22 4 -60 13 -85 19 -25 5 -65 14 -90 20 -53 11 -129 28
-185 42 -54 13 -125 21 -125 14z"/>
<path d="M14240 15232 c-297 -297 -812 -708 -1174 -937 l-79 -50 2 -1235 c2
-1158 7 -1759 15 -1768 2 -2 75 44 162 101 88 57 232 150 320 208 271 175 570
369 726 471 l148 98 -5 1007 c-7 1365 -16 2193 -24 2192 -3 -1 -44 -40 -91
-87z"/>
<path d="M12510 13978 c-46 -27 -577 -294 -661 -332 -35 -16 -95 -44 -134 -61
-115 -54 -292 -132 -350 -155 -24 -10 -110 -46 -148 -63 l-27 -12 -3 -1648
c-1 -906 1 -1647 5 -1647 5 0 104 63 578 372 47 30 177 115 290 188 113 73
271 176 352 229 l148 96 0 1528 c0 840 -3 1527 -7 1526 -5 0 -24 -10 -43 -21z"/>
<path d="M10685 13170 c-3 -5 -17 -10 -30 -10 -13 0 -26 -4 -29 -8 -3 -4 -28
-14 -56 -22 -28 -8 -53 -18 -56 -22 -3 -4 -15 -8 -28 -8 -12 0 -26 -4 -31 -8
-6 -5 -44 -19 -85 -31 -41 -13 -84 -27 -95 -31 -11 -4 -54 -18 -95 -30 -41
-13 -104 -32 -140 -43 -36 -10 -73 -23 -82 -28 -10 -5 -27 -9 -38 -9 -11 0
-28 -4 -38 -9 -9 -5 -37 -15 -62 -21 -25 -7 -56 -16 -70 -20 -14 -4 -45 -13
-70 -20 -93 -26 -116 -33 -138 -41 -13 -5 -32 -9 -43 -9 -10 0 -27 -4 -37 -9
-9 -5 -35 -13 -57 -18 l-40 -8 -3 -1312 -2 -1312 272 -184 c150 -101 364 -245
475 -320 111 -75 206 -137 212 -137 6 0 61 32 123 71 62 39 157 99 210 133 54
33 99 65 101 71 1 5 0 136 -4 290 -4 154 -7 918 -8 1698 l-1 1417 -24 0 c-14
0 -28 -4 -31 -10z"/>
<path d="M8907 12654 c-3 -4 -24 -10 -47 -15 -22 -5 -59 -14 -82 -20 -24 -5
-63 -14 -88 -19 -25 -5 -65 -13 -90 -18 -25 -5 -101 -21 -170 -35 -69 -14
-138 -28 -155 -32 -65 -14 -240 -46 -412 -75 -32 -5 -83 -12 -113 -16 -100
-12 -90 49 -90 -572 0 -301 4 -552 8 -558 13 -20 1255 -843 1264 -838 4 3 8
500 8 1105 0 909 -2 1099 -13 1099 -8 0 -16 -3 -20 -6z"/>
<path d="M7150 12339 c-282 -32 -640 -64 -838 -75 -62 -4 -112 -10 -110 -14 3
-8 184 -130 193 -130 2 0 75 -46 162 -103 87 -57 208 -135 268 -174 61 -38
174 -111 252 -162 78 -50 147 -91 152 -91 8 0 11 121 11 380 0 298 -3 380 -12
378 -7 0 -42 -5 -78 -9z"/>
<path d="M5750 10882 c0 -725 -3 -1555 -6 -1843 l-7 -524 119 -81 c218 -148
468 -319 604 -415 131 -93 199 -139 520 -359 177 -122 503 -345 730 -500 448
-307 596 -408 820 -560 281 -191 389 -265 478 -327 l62 -44 0 -380 c0 -228 -4
-379 -9 -379 -10 0 -910 600 -1006 670 -27 20 -198 136 -380 258 -181 123
-411 278 -510 345 -99 68 -292 200 -430 293 -336 228 -738 504 -888 609 -43
30 -84 55 -90 55 -15 0 -14 -1500 1 -1509 20 -13 619 -420 797 -542 105 -71
277 -189 383 -262 107 -73 262 -179 346 -237 292 -200 752 -515 1196 -817 96
-66 256 -175 355 -243 99 -68 297 -203 440 -300 499 -339 732 -497 813 -554
45 -31 87 -54 92 -51 11 7 14 3664 2 3681 -4 6 -38 31 -77 54 -38 24 -150 97
-248 164 -99 66 -339 229 -535 361 -197 132 -440 297 -542 366 -102 69 -297
202 -435 294 -634 428 -926 628 -1240 848 -38 27 -117 81 -174 120 l-105 72 0
473 c-1 324 2 472 10 472 12 0 500 -328 1459 -980 132 -90 350 -238 485 -328
135 -91 295 -199 355 -241 61 -41 217 -147 347 -235 492 -334 604 -410 639
-438 20 -15 42 -28 48 -28 8 0 10 185 9 677 l-3 677 -125 86 c-69 47 -186 128
-260 180 -272 189 -369 256 -570 393 -113 78 -259 178 -325 224 -66 46 -255
174 -420 286 -165 111 -423 288 -573 392 -338 236 -619 427 -869 593 -639 422
-1203 798 -1234 823 -20 16 -40 29 -43 29 -3 0 -6 -593 -6 -1318z"/>
<path d="M14700 11879 c-14 -11 -133 -90 -265 -176 -132 -85 -302 -196 -378
-246 -77 -50 -147 -96 -158 -102 -11 -5 -106 -67 -212 -136 -105 -69 -250
-163 -322 -209 -71 -46 -339 -221 -595 -390 -256 -169 -546 -359 -645 -423
-99 -64 -252 -163 -340 -220 -88 -58 -225 -146 -305 -197 -80 -51 -206 -132
-280 -180 -74 -48 -193 -124 -265 -170 -71 -45 -176 -112 -232 -149 l-103 -66
0 -2416 c0 -2479 6 -3469 22 -3469 5 0 24 11 42 25 18 14 36 25 40 25 3 0 43
24 89 54 45 29 150 95 232 146 147 91 218 135 380 237 44 28 134 84 200 125
l120 74 0 1085 0 1084 160 106 c542 361 1658 1097 2090 1379 138 90 355 233
484 318 129 84 245 159 258 165 l23 10 0 721 c0 397 3 738 6 759 5 25 3 37 -5
37 -14 0 -63 -32 -976 -632 -143 -94 -327 -215 -410 -268 -82 -53 -240 -156
-350 -228 -110 -72 -283 -185 -385 -251 -526 -343 -619 -403 -746 -486 -76
-49 -144 -91 -151 -93 -10 -3 -13 66 -13 348 l0 351 178 116 c258 169 582 380
777 506 94 61 251 163 350 227 99 64 250 162 335 217 236 152 517 334 700 453
220 143 484 313 598 385 51 33 92 66 92 74 0 9 1 350 2 759 2 490 0 742 -7
742 -5 -1 -21 -10 -35 -21z"/>
</g>
</svg>
